<?xml version="1.0" encoding="utf-8"?>
<!-- Generator: Adobe Illustrator 27.5.0, SVG Export Plug-In . SVG Version: 6.00 Build 0)  -->
<svg version="1.1" xmlns="http://www.w3.org/2000/svg" xmlns:xlink="http://www.w3.org/1999/xlink" x="0px" y="0px"
	 viewBox="0 0 500 500" style="enable-background:new 0 0 500 500;" xml:space="preserve">
<g id="BACKGROUND">
	<rect style="fill:#FCEACF;" width="500" height="500"/>
</g>
<g id="OBJECTS">
	<g>
		<g>
			<path style="fill:#4A4C5D;" d="M363.467,247.661c-2.487-27.978-17.137-43.259-24.346-59.885
				c-7.087-16.345-5.33-30.023-6.923-44.857c-1.939-18.06-18.433-40.972-18.433-40.972c-0.57,3.263-2.864,6.173-2.864,6.173
				c-5.071-9.425-26.787-24.805-26.787-24.805c5.007-2.48,8.916-8.123,8.916-8.123c-6.331,2.464-6.438-1.822-31.269-5.608
				c-11.942-1.821-30.315,6.508-30.315,6.508c0.354-4.107-2.495-6.508-2.495-6.508c-3.81,6.221-18.385,11.005-28.317,17.4
				c-10.001,6.439-16.552,20.772-16.552,20.772c4.253-8.817-2.679-12.558-2.679-12.558s-0.685,11.102-8.544,19.504
				c-7.93,8.477-11.774,26.725-11.533,38.251c0.151,7.23,0.76,22.681-1.686,36.248c-2.482,13.759-13.045,30.844-18.822,51.515
				c-5.899,21.109-1.209,22.435-6.562,40.221c-3.951,13.127-11.689,19.416-11.689,19.416c6.289,2.442,12.805-0.63,15.374-3.559
				c-1.278,5.217-2.955,17.067,1.307,35.306c6.074,25.991,33.77,43.479,36.522,50.801c2.771,7.373,1.364,19.151,1.364,19.151
				c4.625-1.868,9.894-8.691,9.894-8.691c1.686,11.812,13.04,26.287,13.04,26.287c-0.89-5.687-3.609-19.464-3.609-19.464
				s3.548,0,12.969,11.259c3.139,3.751,7.711,10.173,12.117,15.189c8.973,10.217,24.644,15.241,24.644,15.241
				s-1.723-8.398,9.64-13.519c11.31-5.097,21.832-20.677,21.832-20.677c-1.418,8.808,1.765,17.504,1.765,17.504
				c-0.115-8.43,9.358-21.257,9.358-21.257c2.624,4.38,12.336,6.262,12.336,6.262c3.358-8.134,28.446-29.119,50.238-46.097
				c21.034-16.387,14.135-61.928,13.861-63.677c2.891,5.634,14.504,5.634,14.504,5.634S367.216,289.841,363.467,247.661z"/>
			<path style="fill:#3E404E;" d="M334.677,287.817c-21.306-0.844-42.594-2.533-63.838-4.206
				c-33.381-2.629-66.816-6.69-100.307-5.316c-8.078,20.391-5.6,53.538,11.535,78.11c-0.002-0.001-0.015-0.006-0.015-0.006
				c0.05,0.071,0.222,0.305,0.501,0.674c1.624,2.278,3.378,4.476,5.262,6.583c5.298,6.319,13.371,15.086,20.462,19.243
				c11.539,6.765,16.933,13.808,16.933,13.808s1.648-0.599,0.899-4.795c0,0,3.647,1.615,9.641,6.859
				c5.994,5.245,6.08,9.782,6.08,9.782s5.686-0.898,15.823-8.294c6.668-4.864,16.906-11.59,16.906-11.59s-1.063,3.934,0.532,6.911
				c0,0,15.011-9.655,25.197-20.748c0.024-0.026,0.043-0.049,0.066-0.075C329.876,352.664,339.981,314.432,334.677,287.817z"/>
			<g>
				<path style="fill:#2B2B36;" d="M259.53,414.377c-0.044,1.822-0.276,3.598-0.673,5.367c-0.392,1.76-1.001,3.559-1.984,5.159
					c-0.959,1.61-2.163,2.984-3.408,4.269c-1.253,1.282-2.572,2.488-4.038,3.572c1.654-3.236,3.996-5.986,5.731-8.868
					c0.877-1.432,1.558-2.971,2.216-4.597C258.033,417.656,258.685,415.991,259.53,414.377z"/>
			</g>
			<g>
				<path style="fill:#2B2B36;" d="M365.21,300.353c-0.698-1.403-1.274-2.749-1.943-4.063c-0.67-1.308-1.334-2.602-2.057-3.876
					l-2.171-3.842c-0.743-1.286-1.484-2.581-2.193-3.967c1.328,0.828,2.452,1.902,3.462,3.06c1.008,1.163,1.903,2.428,2.65,3.782
					c0.765,1.343,1.335,2.802,1.761,4.293C365.144,297.23,365.328,298.804,365.21,300.353z"/>
			</g>
			<g>
				<path style="fill:#2B2B36;" d="M175.769,382.9c-1.01-2.065-1.914-4.126-2.825-6.18c-0.924-2.047-1.806-4.102-2.76-6.122
					c-0.918-2.036-1.887-4.044-2.878-6.041c-1.016-1.991-2.028-3.959-3.373-5.812c1.944,1.268,3.43,3.133,4.717,5.019
					c1.302,1.9,2.379,3.931,3.351,6.002c0.94,2.086,1.763,4.223,2.402,6.419C175.051,378.373,175.556,380.611,175.769,382.9z"/>
			</g>
		</g>
		<path style="fill:#BDBECB;" d="M264.269,212.771c11.992-0.086,23.898-1.583,35.836-2.558c0.185-0.372,0.365-0.742,0.58-1.126
			c9.952-17.761,13.685-31.715-3.733-39.327c-17.417-7.612-34.721,5.345-37.945,22.201c-1.511,7.9-2.657,11.964-1.508,20.616
			C259.748,212.701,262.002,212.788,264.269,212.771z"/>
		<path style="fill:#BDBECB;" d="M202.37,210.247c7.492-1.286,15.097-1.65,22.831-1.05c6.674,0.518,13.277,1.46,19.895,2.248
			c0.903-7.883-0.202-11.939-1.645-19.483c-3.224-16.856-20.527-29.813-37.944-22.201c-17.417,7.612-13.685,21.566-3.733,39.327
			C201.995,209.483,202.18,209.864,202.37,210.247z"/>
		<path style="fill:#9FA0AB;" d="M329.299,261.532c-15.551-27.37-38.566-31.724-28.614-49.141
			c9.953-17.417,13.685-31.102-3.732-38.566c-17.417-7.465-34.721,5.242-37.945,21.771c-1.875,9.612-3.194,13.423-0.255,27.237
			c0,0-6.958-2.349-7.608-11.388c-1.144,9.039-7.439,11.388-7.439,11.388c2.939-13.814,1.62-17.625-0.255-27.237
			c-3.224-16.53-20.527-29.236-37.945-21.771c-17.417,7.464-13.685,21.149-3.732,38.566c9.953,17.417-13.063,21.771-28.614,49.141
			c-15.551,27.37-6.914,90.054,41.055,109.549c37.371,15.188,59.064,7.623,74.03,0C334.383,347.58,344.85,288.902,329.299,261.532z"
			/>
		<path style="fill:#8B8B95;" d="M296.475,265.839c0.398-7.637-0.287-10.431-8.466-9.825c-8.179,0.606-19.454,3.39-27.069,3.996
			c-7.615,0.606-15.392,0.122-20.465-0.094c-8.615-0.367-18.748-3.793-22.826-4.812c-4.077-1.019-12.979,5.132-12.563,10.681
			c0.165,2.207,1.573,3.956,3.555,5.371c-0.072,0.74,0.166,1.367,0.876,1.834c2.298,1.512,0.984,4.044-2.519,5.028
			c0,0,10.508,4.35,21.812,4.179c11.304-0.17,19.424-2.722,31.524-1.685c12.1,1.037,28.658,1.196,36.141-3.262
			c0,0-6.041-1.919-6.161-4.478C293.769,271.342,296.301,269.181,296.475,265.839z"/>
		<path style="fill:#2B2B36;" d="M235.015,302.802c2.594,2.176,28.72,15.232,53.737,12.462c25.017-2.769,33.04-16.021,31.522-32.419
			c0,0-9.077,27.276-36.376,25.495c-27.299-1.78-43.873-5.667-43.873-5.667L235.015,302.802z"/>
		<path style="fill:#BDBECB;" d="M192.432,289.509c5.143,2.261,35.618,11.928,71.108,6.566s50.092-25.245,50.092-25.245
			s-21.622,39.848-71.894,32.054C205.451,297.257,192.432,289.509,192.432,289.509z"/>
		<path style="fill:#8B8B95;" d="M329.227,323.927c-27.844,36.586-76.634,43.218-117.898,26.969
			c-16.949-6.674-30.422-16.998-40.865-29.724c6.486,20.824,20.477,40.451,43.749,49.909c37.371,15.188,59.064,7.623,74.03,0
			c21.376-10.888,35.082-29.329,42.105-48.707C329.972,322.89,329.615,323.417,329.227,323.927z"/>
		<path style="fill:#8B8B95;" d="M267.034,233.63c-3.074-5.417-2.422-16.452-0.49-19.532c0,0,0.844,11.012,4.706,14.198
			c3.862,3.186,4.838,4.735,4.838,4.735L267.034,233.63z"/>
		<path style="fill:#8B8B95;" d="M269.447,231.924c4.95,0.697,14.229,2.905,14.915,3.6c3.559-3.45,5.687-9.13,6.064-15.048
			c0.562-8.817-4.09-15.856-10.391-15.722c-6.301,0.134-11.865,7.391-12.427,16.208C267.375,224.626,268.112,228.84,269.447,231.924
			z"/>
		<g>
			<g>
				<path style="fill:#2B2B36;" d="M278.017,210.16c-4.618,0.019-8.581,5.214-8.71,11.216c-0.1,4.658,2.162,9.56,5.337,11.586
					c1.226,0.309,2.45,0.632,3.681,0.924c4.321-0.538,8.141-6.773,8.263-12.453C286.718,215.431,283.392,210.138,278.017,210.16z"/>
				<path style="fill:#FFFFFF;" d="M277.848,211.443c-4.616-0.138-8.463,4.617-8.592,10.619c-0.086,4.007,1.576,8.192,4.063,10.575
					c2.131,0.505,4.245,1.109,6.393,1.56c3.55-1.469,6.152-6.616,6.26-11.637C286.101,216.557,282.464,211.58,277.848,211.443z"/>
				<g>
					<path style="fill:#ECB430;" d="M284.542,225.763c-0.891,4.505-4.714,7.305-8.541,6.257c-3.827-1.049-6.206-5.549-5.315-10.054
						c0.891-4.505,4.714-7.305,8.541-6.256c2.877,0.788,4.936,3.531,5.411,6.756c0.129,0.969,0.133,2.002-0.057,3.03
						C284.575,225.592,284.56,225.67,284.542,225.763z"/>
				</g>
				<g>
					<path style="fill:#2B2B36;" d="M282.388,225.855c-0.614,3.404-3.249,5.52-5.886,4.727c-2.637-0.792-4.277-4.193-3.663-7.596
						c0.614-3.404,3.249-5.52,5.886-4.727c1.982,0.596,3.401,2.668,3.729,5.105c0.089,0.732,0.092,1.512-0.039,2.29
						C282.411,225.726,282.401,225.785,282.388,225.855z"/>
				</g>
			</g>
			<path style="fill:#FFFFFF;" d="M281.52,220.484c0,1.321-0.909,2.391-2.031,2.391c-1.122,0-2.031-1.071-2.031-2.391
				s0.909-2.391,2.031-2.391C280.611,218.093,281.52,219.163,281.52,220.484z"/>
		</g>
		<path style="fill:#2B2B36;" d="M281.679,204.772c5.167,0.275,6.294,0.597,7.852-0.519c1.558-1.117,1.958-3.917-1.279-4.907
			c-4.821-1.474-17.753-0.383-18.915,9.025C269.337,208.371,272.035,204.259,281.679,204.772z"/>
		<path style="fill:#8B8B95;" d="M236.437,233.165c2.71-5.608,1.331-16.576-0.8-19.521c0,0-0.115,11.044-3.759,14.478
			c-3.644,3.434-4.515,5.044-4.515,5.044H236.437z"/>
		<path style="fill:#8B8B95;" d="M233.133,231.924c-4.95,0.697-14.229,2.905-14.915,3.6c-3.559-3.45-5.687-9.13-6.064-15.048
			c-0.562-8.817,4.09-15.856,10.391-15.722c6.301,0.134,11.865,7.391,12.427,16.208C235.206,224.626,234.468,228.84,233.133,231.924
			z"/>
		<g>
			<g>
				<path style="fill:#2B2B36;" d="M224.361,210.16c4.618,0.019,8.581,5.214,8.71,11.216c0.1,4.658-2.162,9.56-5.337,11.586
					c-1.226,0.309-2.45,0.632-3.681,0.924c-4.321-0.538-8.141-6.773-8.263-12.453C215.66,215.431,218.986,210.138,224.361,210.16z"
					/>
				<path style="fill:#FFFFFF;" d="M224.53,211.443c4.616-0.138,8.463,4.617,8.592,10.619c0.086,4.007-1.576,8.192-4.063,10.575
					c-2.131,0.505-4.245,1.109-6.393,1.56c-3.55-1.469-6.152-6.616-6.26-11.637C216.277,216.557,219.914,211.58,224.53,211.443z"/>
				<g>
					<path style="fill:#ECB430;" d="M217.836,225.763c0.891,4.505,4.714,7.305,8.541,6.257c3.827-1.049,6.206-5.549,5.315-10.054
						c-0.891-4.505-4.714-7.305-8.541-6.256c-2.877,0.788-4.936,3.531-5.411,6.756c-0.128,0.969-0.133,2.002,0.057,3.03
						C217.803,225.592,217.818,225.67,217.836,225.763z"/>
				</g>
				<g>
					<path style="fill:#2B2B36;" d="M219.99,225.855c0.614,3.404,3.249,5.52,5.886,4.727c2.637-0.792,4.277-4.193,3.662-7.596
						c-0.614-3.404-3.249-5.52-5.886-4.727c-1.982,0.596-3.401,2.668-3.729,5.105c-0.089,0.732-0.091,1.512,0.039,2.29
						C219.967,225.726,219.977,225.785,219.99,225.855z"/>
				</g>
			</g>
			<ellipse style="fill:#FFFFFF;" cx="222.889" cy="220.484" rx="2.031" ry="2.391"/>
		</g>
		<path style="fill:#2B2B36;" d="M221.831,204.643c-5.174-0.066-6.309,0.411-7.833-0.751c-1.524-1.162-1.841-3.973,1.423-4.867
			c4.862-1.331,17.704,0.835,18.64,9.58C234.061,208.605,230.41,204.753,221.831,204.643z"/>
		<g>
			<path style="fill:#2B2B36;" d="M248.549,273.695c1.439-9.304-0.182-18.808-14.021-22.578
				c-14.209-3.872-23.631,2.676-20.182,14.167c3.183,10.603,13.962,11.602,22.502,10.802c5.258-0.493,6.928-4.727,7.736-8.333
				C245.415,264.049,248.549,273.695,248.549,273.695z"/>
			<path style="fill:#25262A;" d="M246.331,258.759c-2.172-3.311-5.867-6.024-11.802-7.642
				c-14.209-3.872-23.631,2.676-20.182,14.167c1.881,6.267,6.328,9.137,11.367,10.309
				C227.51,267.171,233.908,260.09,246.331,258.759z"/>
			<path style="fill:#2B2B36;" d="M253.835,273.695c-1.439-9.304,0.182-18.808,14.02-22.578c14.21-3.872,23.631,2.676,20.182,14.167
				c-3.183,10.603-13.962,11.602-22.502,10.802c-5.258-0.493-6.928-4.727-7.736-8.333
				C256.969,264.049,253.835,273.695,253.835,273.695z"/>
			<path style="fill:#25262A;" d="M267.856,251.117c-6.678,1.82-10.515,5.024-12.537,8.906c10.818-2.247,22.659,0.832,24.715,10.837
				c0.241,1.172,0.294,2.357,0.23,3.543c3.477-1.587,6.351-4.379,7.774-9.119C291.487,253.793,282.065,247.245,267.856,251.117z"/>
		</g>
		<path style="fill:#2B2B36;" d="M230.41,166.061c5.467-1.636,13.113,2.807,19.028,3.047c5.915,0.24,8.496-2.654,12.196-2.96
			c3.7-0.306,9.397,0,9.397,0s-9.394-4.747-15.124-2.41c-5.73,2.337-9.225,0.038-14.96-0.717
			C235.212,162.265,230.41,166.061,230.41,166.061z"/>
		<path style="fill:#2B2B36;" d="M225.965,155.521c12.77-0.005,15.983,2.705,23.192,2.937c7.209,0.231,10.355-2.558,14.865-2.853
			c4.509-0.295,11.453,0,11.453,0s-8.912-4.319-15.895-2.067c-6.984,2.253-15.421-0.087-22.411-0.815
			C230.179,151.995,225.965,155.521,225.965,155.521z"/>
		<path style="fill:#2B2B36;" d="M237.864,146.081c7.54-1.124,9.112,2.569,12.856,2.733c3.744,0.164,4.566-2.464,6.908-2.673
			c2.342-0.209,5.948,0,5.948,0s-5.946-3.248-9.573-1.649c-3.627,1.599-4.206,0.074-7.836-0.443
			C242.537,143.531,237.864,146.081,237.864,146.081z"/>
		<g>
			<path style="fill:#BDBECB;" d="M323.696,199.37c12.963-16.392,28.967-24.638,38.5-14.944c8.563,8.708,12.851,30.776-0.887,42.382
				c-13.384,11.307-25.268,7.071-25.268,7.071L323.696,199.37z"/>
			<path style="fill:#9FA0AB;" d="M325.081,202.101c12.963-15.123,28.967-22.731,38.5-13.787
				c8.563,8.034,12.851,28.394-0.887,39.102c-13.383,10.432-25.268,6.524-25.268,6.524L325.081,202.101z"/>
			<path style="fill:#515158;" d="M336.759,204.061c5.82-9.285,13.196-14.06,18.035-8.654c4.536,5.067,7.516,18.613,0.714,25.688
				c-6.583,6.848-12.585,3.792-12.585,3.792L336.759,204.061z"/>
			<path style="fill:#424248;" d="M354.509,195.135c-4.85-4.918-12.047-0.172-17.75,8.926l6.165,20.827
				c0,0,5.434,2.749,11.595-2.845c-2.672,0.524-5.841,0.703-7.433-2.872C340.587,204.572,352.336,196.413,354.509,195.135z"/>
			<g>
				<path style="fill:#363744;" d="M336.759,204.061c1.253-2.409,2.781-4.689,4.621-6.744c1.853-2.015,4.038-3.921,6.917-4.746
					c1.433-0.378,3.077-0.345,4.502,0.295c1.416,0.621,2.596,1.692,3.444,2.848c1.723,2.334,2.751,4.994,3.469,7.703
					c0.668,2.725,0.918,5.56,0.644,8.376c-0.305,2.798-1.138,5.628-2.811,7.975c-1.683,2.355-3.95,4.092-6.536,5.235
					c-2.598,1.049-5.654,1.17-8.085-0.116c2.592,0.858,5.384,0.418,7.675-0.777c2.267-1.229,4.299-3.083,5.648-5.211
					c1.332-2.172,2.045-4.699,2.222-7.274c0.197-2.574-0.045-5.208-0.698-7.729c-0.625-2.517-1.596-4.998-3.047-7.06
					c-0.714-1.048-1.602-1.865-2.638-2.374c-1.038-0.498-2.233-0.607-3.434-0.377c-2.411,0.55-4.642,2.124-6.578,3.919
					C340.106,199.8,338.382,201.889,336.759,204.061z"/>
			</g>
		</g>
		<path style="fill:#4A4C5D;" d="M352.672,238.723c-4.703-6.421-6.96-14.01-8.64-22.152c4.645,1.523,8.054-1.436,8.054-1.436
			s-2.215-0.765-5.677-4.883c-1.965-2.338-4.398-8.534-6.135-13.459c-1.378-6.317-3.195-12.685-6.201-18.874
			c0,0-28.814,25.913-16.653,47.649c12.161,21.736,25.773,49.03,29.118,52.731c3.344,3.701,13.461,3.899,13.461,3.899
			c-3.26-8.209-0.73-21.585-0.73-21.585c9.387,0.608,12.56-4.175,12.56-4.175S364.474,254.836,352.672,238.723z"/>
		<g>
			<path style="fill:#2B2B36;" d="M359.267,260.613l1.716-0.02c0.57-0.052,1.14-0.077,1.704-0.15
				c1.126-0.155,2.248-0.345,3.318-0.704c1.07-0.349,2.104-0.801,3.041-1.397c0.92-0.588,1.816-1.342,2.39-2.163l0.29,0.716
				c-1.152-0.288-2.073-0.776-3.033-1.289c-0.935-0.53-1.84-1.107-2.707-1.731c-1.747-1.234-3.364-2.627-4.894-4.102
				c-3.079-2.933-5.846-6.161-8.405-9.53c-2.675-3.329-4.733-7.205-6.232-11.195c-1.527-3.998-2.551-8.138-3.384-12.278
				l-0.319-1.585l1.583,0.457c0.607,0.175,1.222,0.335,1.85,0.366c0.625,0.058,1.256,0.015,1.875-0.096
				c0.62-0.108,1.232-0.295,1.813-0.555c0.569-0.246,1.173-0.599,1.596-0.929l0.309,1.596c-0.629-0.258-0.989-0.506-1.429-0.796
				c-0.417-0.284-0.804-0.59-1.184-0.902c-0.751-0.632-1.445-1.307-2.1-2.011c-0.648-0.723-1.277-1.39-1.869-2.256
				c-0.558-0.829-1.009-1.678-1.428-2.536c-1.636-3.439-2.907-6.963-4.078-10.523l-0.016-0.049l-0.005-0.025
				c-0.638-3.243-1.369-6.467-2.267-9.649c-0.454-1.59-0.956-3.167-1.515-4.725c-0.567-1.555-1.149-3.109-1.816-4.631
				c0.782,1.465,1.529,2.954,2.18,4.487c0.659,1.529,1.264,3.083,1.821,4.655c1.125,3.141,2.029,6.359,2.805,9.6l-0.021-0.074
				c1.339,3.463,2.679,6.949,4.372,10.193c0.427,0.804,0.88,1.592,1.376,2.303c0.47,0.67,1.131,1.362,1.742,2.013
				c0.628,0.65,1.287,1.264,1.975,1.82c0.347,0.273,0.697,0.539,1.057,0.773c0.336,0.224,0.776,0.468,1.014,0.559l1.542,0.592
				l-1.233,1.004c-0.685,0.558-1.318,0.925-2.044,1.26c-0.713,0.324-1.468,0.563-2.245,0.704c-0.775,0.145-1.574,0.203-2.364,0.137
				c-0.794-0.038-1.567-0.225-2.321-0.444l1.264-1.128c0.865,4.079,1.872,8.116,3.302,11.984c1.441,3.869,3.333,7.513,5.842,10.801
				c2.467,3.354,5.096,6.593,7.995,9.56c1.449,1.483,2.973,2.892,4.597,4.163c1.604,1.251,3.391,2.462,5.2,3.097l0.673,0.236
				l-0.383,0.479c-0.808,1.012-1.768,1.678-2.803,2.267c-1.035,0.571-2.143,0.974-3.269,1.265c-1.127,0.298-2.284,0.43-3.434,0.502
				c-0.576,0.026-1.153,0.004-1.727,0.007L359.267,260.613z"/>
		</g>
		<g>
			<g>
				<path style="fill:#BDBECB;" d="M177.865,199.37c-12.963-16.392-28.966-24.638-38.5-14.944
					c-8.563,8.708-12.851,30.776,0.887,42.382c13.383,11.307,25.268,7.071,25.268,7.071L177.865,199.37z"/>
				<path style="fill:#9FA0AB;" d="M177.865,202.101c-12.963-15.123-28.967-22.731-38.5-13.787
					c-8.563,8.034-12.851,28.394,0.887,39.102c13.383,10.432,25.268,6.523,25.268,6.523L177.865,202.101z"/>
				<path style="fill:#515158;" d="M164.803,204.061c-5.82-9.285-13.196-14.06-18.035-8.654c-4.536,5.067-7.516,18.613-0.714,25.688
					c6.583,6.848,12.585,3.792,12.585,3.792L164.803,204.061z"/>
				<path style="fill:#424248;" d="M147.052,195.135c4.85-4.918,12.047-0.172,17.75,8.926l-6.165,20.827
					c0,0-5.434,2.749-11.595-2.845c2.672,0.524,5.842,0.703,7.433-2.872C160.974,204.572,149.226,196.413,147.052,195.135z"/>
				<g>
					<path style="fill:#363744;" d="M164.803,204.061c-1.631-2.168-3.344-4.264-5.312-6.062c-1.933-1.79-4.17-3.387-6.583-3.906
						c-1.198-0.258-2.397-0.146-3.438,0.346c-1.051,0.491-1.91,1.354-2.629,2.393c-1.453,2.061-2.424,4.543-3.05,7.06
						c-0.653,2.522-0.896,5.155-0.699,7.73c0.176,2.576,0.889,5.103,2.221,7.276c1.35,2.129,3.382,3.984,5.649,5.212
						c2.292,1.196,5.084,1.636,7.676,0.777c-2.431,1.286-5.487,1.165-8.086,0.115c-2.587-1.144-4.854-2.881-6.536-5.237
						c-1.673-2.348-2.506-5.179-2.81-7.977c-0.274-2.817-0.023-5.652,0.645-8.378c0.72-2.709,1.747-5.369,3.472-7.703
						c0.855-1.149,1.991-2.254,3.433-2.865c1.432-0.637,3.084-0.669,4.505-0.265c2.89,0.796,5.072,2.723,6.924,4.733
						C162.025,199.37,163.543,201.657,164.803,204.061z"/>
				</g>
			</g>
		</g>
		<path style="fill:#4A4C5D;" d="M148.89,238.723c4.703-6.421,6.96-14.01,8.64-22.152c-4.645,1.523-8.054-1.436-8.054-1.436
			s2.215-0.765,5.677-4.883c1.965-2.338,4.398-8.534,6.136-13.459c1.378-6.317,3.195-12.685,6.201-18.874
			c0,0,28.232,24.21,16.072,45.945c-12.161,21.736-25.192,50.733-28.536,54.434c-3.344,3.701-13.461,3.899-13.461,3.899
			c3.26-8.209,0.73-21.585,0.73-21.585c-9.387,0.608-12.56-4.175-12.56-4.175S137.088,254.836,148.89,238.723z"/>
		<g>
			<path style="fill:#2B2B36;" d="M142.294,260.613l-1.717,0.124c-0.574-0.004-1.151,0.019-1.727-0.007
				c-1.15-0.072-2.307-0.204-3.434-0.502c-1.126-0.291-2.235-0.694-3.269-1.265c-1.034-0.589-1.994-1.255-2.803-2.267l-0.383-0.479
				l0.673-0.236c1.809-0.635,3.596-1.846,5.2-3.097c1.624-1.272,3.148-2.681,4.597-4.163c2.899-2.968,5.527-6.206,7.994-9.56
				c2.509-3.289,4.401-6.932,5.842-10.801c1.43-3.868,2.437-7.905,3.302-11.984l1.264,1.128c-0.754,0.219-1.527,0.407-2.321,0.444
				c-0.79,0.066-1.589,0.008-2.364-0.137c-0.777-0.142-1.532-0.38-2.245-0.704c-0.726-0.334-1.359-0.702-2.044-1.26l-1.233-1.004
				l1.542-0.592c0.237-0.091,0.677-0.335,1.014-0.559c0.36-0.234,0.71-0.5,1.057-0.773c0.688-0.556,1.347-1.17,1.975-1.82
				c0.611-0.651,1.272-1.343,1.742-2.013c0.495-0.711,0.948-1.499,1.375-2.303c1.693-3.245,3.034-6.73,4.373-10.193l-0.021,0.074
				c0.776-3.241,1.68-6.46,2.805-9.6c0.557-1.572,1.162-3.126,1.821-4.655c0.651-1.533,1.398-3.022,2.18-4.487
				c-0.667,1.521-1.249,3.076-1.816,4.631c-0.559,1.559-1.061,3.135-1.515,4.725c-0.898,3.183-1.628,6.406-2.267,9.649l-0.005,0.025
				l-0.016,0.049c-1.171,3.56-2.442,7.084-4.078,10.523c-0.419,0.858-0.87,1.707-1.428,2.536c-0.592,0.866-1.221,1.533-1.869,2.256
				c-0.655,0.704-1.35,1.38-2.1,2.011c-0.38,0.312-0.767,0.618-1.184,0.902c-0.441,0.29-0.801,0.537-1.429,0.796l0.309-1.596
				c0.423,0.331,1.027,0.684,1.596,0.929c0.581,0.26,1.193,0.447,1.813,0.555c0.619,0.111,1.25,0.155,1.875,0.096
				c0.628-0.03,1.242-0.19,1.85-0.366l1.583-0.457l-0.319,1.585c-0.833,4.14-1.857,8.28-3.384,12.278
				c-1.499,3.99-3.557,7.866-6.232,11.195c-2.558,3.369-5.325,6.597-8.405,9.53c-1.529,1.474-3.147,2.868-4.894,4.102
				c-0.867,0.624-1.772,1.2-2.707,1.731c-0.96,0.513-1.881,1.001-3.033,1.289l0.29-0.716c0.574,0.822,1.47,1.575,2.39,2.163
				c0.937,0.596,1.972,1.049,3.041,1.397c1.07,0.359,2.192,0.549,3.318,0.704c0.564,0.073,1.134,0.098,1.704,0.15L142.294,260.613z"
				/>
		</g>
		<path style="fill:#FFFFFF;" d="M318.77,292.79c-3.25,10.92-14.72,17.96-32.57,18.29c-1.75,0.04-3.57,0.01-5.44-0.09
			c-0.14,0-0.27-0.02-0.41-0.02c-7.53-0.41-14.82-1.46-21.2-2.68c-0.53-0.1-1.04-0.2-1.55-0.3c-1.4-0.26-2.78-0.55-4.1-0.86
			c-0.03,0-0.03,0-0.03,0c-6.85-1.52-12.12-3.05-14.67-3.85c3.38,0.93,9.21,1.34,25.8-1.31c39.1-6.26,51.94-36.94,51.94-36.94
			S323.53,276.86,318.77,292.79z"/>
		<g>
			<path style="fill:#2B2B36;" d="M189.492,288.094c11.12,4.616,22.641,7.882,34.329,10.178c5.852,1.104,11.73,2.059,17.645,2.672
				c5.911,0.636,11.853,1.133,17.664,0.875c1.464,0.004,2.911-0.193,4.367-0.285c1.454-0.124,2.89-0.378,4.337-0.559
				c2.863-0.531,5.714-1.154,8.488-2.044c2.8-0.81,5.505-1.916,8.159-3.128c2.639-1.249,5.188-2.689,7.674-4.242
				c4.899-3.214,9.468-7.009,13.494-11.366c4.055-4.326,7.682-9.115,10.632-14.357c-2.153,5.64-5.406,10.84-9.143,15.638
				c-1.901,2.379-3.943,4.659-6.155,6.777c-2.208,2.123-4.585,4.073-7.07,5.887c-4.996,3.595-10.565,6.428-16.43,8.396
				c-2.922,1.028-5.954,1.686-8.985,2.29c-1.53,0.211-3.053,0.494-4.59,0.642c-1.539,0.113-3.074,0.34-4.617,0.345
				c-1.542,0.029-3.085,0.105-4.623,0.018c-1.54-0.049-3.083-0.088-4.591-0.219c-3.033-0.219-6.057-0.508-9.064-0.919
				c-6.009-0.842-11.988-1.898-17.865-3.385C211.4,298.402,199.89,294.204,189.492,288.094z"/>
		</g>
		<path style="fill:#2B2B36;" d="M321.903,271.936c-1.28-3.107-5.135-6.098-10.811-8.354c0,0,3.23-2.409,6.327-1.476
			c3.097,0.934,5.066,3.078,5.319,6.241S321.903,271.936,321.903,271.936z"/>
		<path style="fill:#E4E0DD;" d="M303.33,303.31c-4.19,2.83-10.47,5.94-17.13,7.77c-1.75,0.04-3.57,0.01-5.44-0.09
			c-0.14,0-0.27-0.02-0.41-0.02c-7.53-0.41-14.82-1.46-21.2-2.68c13.15,1.61,28.75,0.34,40.11-7.07
			c13.02-8.5,16.29-19.42,16.29-19.42S317.09,294.02,303.33,303.31z"/>
		<g>
			<path style="fill:#2B2B36;" d="M285.888,321.14c2.626-2.304,5.421-4.358,8.335-6.233c2.901-1.897,5.919-3.622,9.066-5.123
				c3.141-1.505,6.427-2.773,9.803-3.68c3.371-0.939,6.785-1.524,10.258-1.883c-3.133,1.56-6.366,2.775-9.496,4.097
				c-3.132,1.327-6.211,2.703-9.274,4.173l-9.217,4.45C292.265,318.413,289.158,319.897,285.888,321.14z"/>
		</g>
		<path style="fill:#595C70;" d="M222.946,93.816c-5.133,1.9-9.785,4.882-13.848,8.79c-2.233,2.148-5.91,4.975-7.344,7.902
			c0.798-3.505,0.001-7.425,0.05-11c-3.323,4.783-6.047,9.882-9.818,14.318c-3.191,3.754-6.727,7.306-10.11,10.809
			c-0.445-1.777-0.383-3.785-0.457-5.615c-1.667,2.992-7.002,12.275-3.397,24.959c0.24-0.65,0.476-1.301,0.703-1.956
			c1.136-3.288,1.732-7.019,3.415-10.048c1.627-2.929,4.428-4.91,6.63-7.279c2.415-2.599,4.884-5.046,7.405-7.513
			c-0.092,2.146-0.541,4.44-0.415,6.561c2.767-5.039,8.445-8.619,12.418-12.47c5.863-5.685,12.086-10.498,19.093-14.423
			c4.683-2.623,9.887-4.176,14.852-6.049c2.821-1.064,5.756-1.876,8.74-2.072C241.4,88.922,231.925,90.493,222.946,93.816z"/>
		<path style="fill:#BDBECB;" d="M249.124,298.387c3.134-1.074,1.937-6.746,1.941-13.518c0.004-6.772,0.38-6.176,0.38-6.176
			s4.001,17.29,5.019,18.264c2.723,2.604,4.476,4.046,4.476,4.046l-11.815-1.724V298.387z"/>
		<g>
			<path style="fill:#2B2B36;" d="M160.122,278.68c-0.756,2.029-1.344,4.109-1.886,6.195c-0.529,2.091-0.976,4.201-1.32,6.324
				c-0.336,2.124-0.599,4.258-0.724,6.388c-0.114,2.125-0.087,4.272,0.306,6.292l0.219,1.123l-1.087-0.318
				c-0.874-0.255-1.616-0.589-2.37-0.999c-0.742-0.411-1.444-0.902-2.089-1.467c-0.651-0.559-1.232-1.21-1.721-1.927
				c-0.514-0.705-0.872-1.509-1.191-2.319l1.64-0.228c-0.064,3.906,0.225,7.897,0.572,11.836c0.367,3.949,0.901,7.882,1.519,11.802
				c0.304,1.961,0.674,3.912,1.047,5.861c0.378,1.952,0.745,3.901,1.225,5.811c0.476,1.914,0.998,3.816,1.637,5.672
				c0.319,0.928,0.669,1.844,1.064,2.734c0.39,0.874,0.826,1.802,1.309,2.525l2.104,3.147l-2.936-2.272
				c-2.224-1.721-4.262-3.608-6.106-5.701c-0.919-1.045-1.786-2.138-2.541-3.308c-0.765-1.16-1.378-2.432-1.751-3.76
				c0.494,1.292,1.246,2.449,2.067,3.538c0.824,1.09,1.752,2.097,2.727,3.053c0.976,0.956,2.005,1.857,3.065,2.717
				c1.05,0.866,2.142,1.707,3.247,2.467l-0.832,0.875c-1.29-1.761-2.079-3.589-2.847-5.485c-0.747-1.888-1.375-3.815-1.901-5.765
				c-1.066-3.907-1.83-7.828-2.513-11.791c-0.687-3.957-1.178-7.948-1.515-11.953c-0.175-2.002-0.294-4.01-0.343-6.022
				c-0.054-2.018-0.077-4.011,0.019-6.066l0.195-4.158l1.445,3.93c0.25,0.679,0.52,1.359,0.935,1.961
				c0.391,0.614,0.865,1.182,1.412,1.68c0.541,0.504,1.141,0.954,1.786,1.337c0.635,0.377,1.354,0.714,2.008,0.927l-0.868,0.805
				c-0.363-2.247-0.271-4.462-0.072-6.642c0.208-2.182,0.578-4.334,1.052-6.458c0.469-2.125,1.041-4.223,1.693-6.293
				C158.451,282.681,159.214,280.644,160.122,278.68z"/>
		</g>
		<g>
			<path style="fill:#2B2B36;" d="M344.718,261.917c-1.264-1.978-2.446-4.003-3.672-5.988c-1.22-1.988-2.491-3.933-3.871-5.773
				c-1.385-1.835-2.909-3.547-4.604-5.038c-1.706-1.478-3.587-2.728-5.619-3.668l-4.662-2.158l5.12,0.291
				c1.35,0.077,2.619,0.232,3.913,0.468c1.284,0.246,2.559,0.553,3.813,0.965c2.488,0.814,5.001,2.024,6.856,4.154l-1.511,0.413
				c0.258-1.484,0.355-3.139,0.311-4.728c-0.051-1.604-0.222-3.211-0.535-4.797c-0.621-3.175-1.817-6.248-3.499-9.098
				c2.116,2.546,3.691,5.586,4.605,8.83c0.465,1.62,0.779,3.289,0.918,4.978c0.135,1.701,0.175,3.365-0.087,5.141l-0.259,1.757
				l-1.252-1.344c-0.778-0.836-1.742-1.523-2.796-2.077c-1.056-0.55-2.178-1.014-3.345-1.373c-1.163-0.367-2.366-0.641-3.578-0.859
				c-1.205-0.215-2.458-0.395-3.643-0.472l0.458-1.867c2.209,1.04,4.244,2.444,6.001,4.111c1.775,1.65,3.278,3.546,4.586,5.532
				c1.318,1.983,2.428,4.074,3.461,6.185C342.855,257.616,343.795,259.76,344.718,261.917z"/>
		</g>
		<g>
			<path style="fill:#2B2B36;" d="M161.849,261.917c0.923-2.157,1.864-4.301,2.891-6.417c1.032-2.111,2.143-4.202,3.461-6.185
				c1.308-1.986,2.811-3.881,4.586-5.532c1.757-1.667,3.791-3.07,6.001-4.111l0.458,1.867c-1.185,0.077-2.438,0.257-3.643,0.472
				c-1.213,0.217-2.415,0.492-3.578,0.859c-1.167,0.359-2.289,0.823-3.345,1.373c-1.054,0.554-2.018,1.241-2.796,2.077l-1.252,1.344
				l-0.259-1.757c-0.262-1.776-0.222-3.44-0.087-5.141c0.138-1.689,0.453-3.358,0.918-4.978c0.914-3.244,2.489-6.284,4.605-8.83
				c-1.682,2.85-2.877,5.923-3.499,9.098c-0.313,1.586-0.484,3.193-0.535,4.797c-0.045,1.589,0.053,3.244,0.311,4.728l-1.511-0.413
				c1.855-2.13,4.368-3.34,6.856-4.154c1.254-0.412,2.53-0.719,3.813-0.965c1.294-0.236,2.563-0.391,3.913-0.468l5.12-0.291
				l-4.662,2.158c-2.032,0.941-3.913,2.19-5.619,3.668c-1.695,1.492-3.219,3.203-4.604,5.038c-1.38,1.841-2.651,3.786-3.871,5.773
				C164.295,257.914,163.113,259.939,161.849,261.917z"/>
		</g>
		<g>
			<path style="fill:#2B2B36;" d="M353.362,316.24c-0.168,2.56-0.422,5.107-0.738,7.656c-0.34,2.544-0.76,5.089-1.372,7.605
				c-0.588,2.522-1.408,4.999-2.415,7.411c-1.04,2.397-2.31,4.71-3.829,6.854l-1.554,2.193l-0.249-2.665
				c-0.247-2.638-0.53-5.272-0.746-7.912l1.81,0.186c-0.624,1.77-1.309,3.45-2.092,5.115c-0.79,1.654-1.626,3.286-2.567,4.857
				c-0.923,1.581-1.957,3.098-3.064,4.551c-1.099,1.46-2.346,2.806-3.653,4.063c1.086-1.459,2.112-2.94,3.036-4.485
				c0.913-1.55,1.792-3.114,2.566-4.733c0.775-1.616,1.528-3.242,2.187-4.906c0.659-1.656,1.307-3.348,1.816-5.017l1.27-4.164
				l0.54,4.35c0.326,2.624,0.586,5.255,0.882,7.882l-1.803-0.472c1.445-2.021,2.683-4.193,3.712-6.469
				c1.067-2.262,1.887-4.641,2.638-7.052c0.727-2.418,1.348-4.883,1.913-7.369C352.235,321.238,352.748,318.731,353.362,316.24z"/>
		</g>
		<g>
			<path style="fill:#2B2B36;" d="M292.91,123.733c1.293,0.735,2.53,1.543,3.754,2.388c1.208,0.863,2.395,1.78,3.491,2.824
				c1.114,1.026,2.103,2.21,2.973,3.493c0.84,1.301,1.516,2.728,1.971,4.217l0.649,2.121l-2.022-0.927
				c-0.55-0.252-1.158-0.5-1.75-0.724c-0.597-0.225-1.201-0.431-1.809-0.618c-1.215-0.372-2.449-0.655-3.669-0.816l0.796-1.527
				c1.055,1.317,2.041,2.632,2.978,4.006c0.926,1.376,1.832,2.764,2.653,4.206c1.64,2.874,3.077,5.913,3.867,9.122
				c-1.356-3.005-3.086-5.767-4.938-8.443c-0.945-1.325-1.893-2.646-2.9-3.923c-1.001-1.274-2.016-2.564-3.071-3.761l-1.514-1.717
				l2.31,0.19c1.398,0.115,2.741,0.418,4.046,0.8c0.652,0.192,1.297,0.403,1.934,0.634c0.641,0.234,1.256,0.474,1.906,0.762
				l-1.373,1.194c-0.396-1.327-0.956-2.599-1.679-3.788c-0.69-1.213-1.571-2.318-2.492-3.413c-0.94-1.078-1.95-2.124-2.993-3.152
				C294.997,125.836,293.924,124.822,292.91,123.733z"/>
		</g>
		<g>
			<path style="fill:#2B2B36;" d="M296.902,251.934c-3.648-7.777-13.845-11.374-25.547-7.896c-5.509,1.637-9.333,3.686-12.644,5.087
				c2.746,0.423,5.298-0.636,7.94-1.328c12.838-3.365,18.214-1.788,23.411,2.178c5.697,4.347,5.376,14.213,2.368,18.312
				c-2.923,3.982-6.23,3.982-7.854,7.104c-1.588,3.052,1.312,5.123,1.312,5.123s-0.918-1.303-0.466-3.032
				c0.458-1.752,3.381-1.12,8.493-5.415C298.496,268.216,300.369,259.324,296.902,251.934z"/>
		</g>
		<g>
			<path style="fill:#2B2B36;" d="M205.361,251.934c3.648-7.777,13.845-11.374,25.548-7.896c5.509,1.637,9.333,3.686,12.644,5.087
				c-2.746,0.423-5.298-0.636-7.94-1.328c-12.838-3.365-18.214-1.788-23.411,2.178c-5.697,4.347-5.376,14.213-2.368,18.312
				c2.923,3.982,6.23,3.982,7.854,7.104c1.588,3.052-1.312,5.123-1.312,5.123s0.918-1.303,0.466-3.032
				c-0.458-1.752-3.38-1.12-8.493-5.415C203.767,268.216,201.895,259.324,205.361,251.934z"/>
		</g>
		<path style="fill:#2B2B36;" d="M264.16,235.181c6.339-0.984,19.399-0.891,26.544,4.677c0,0-4.112-7.618-15.346-8.302
			C268.206,231.12,264.16,235.181,264.16,235.181z"/>
		<path style="fill:#2B2B36;" d="M239.434,235.181c-6.339-0.984-19.399-0.891-26.544,4.677c0,0,4.112-7.618,15.346-8.302
			C235.388,231.12,239.434,235.181,239.434,235.181z"/>
		<g>
			<path style="fill:#2B2B36;" d="M191.228,149.995c-0.56,1.433-1.047,2.868-1.457,4.323c-0.423,1.449-0.789,2.907-1.089,4.374
				c-0.277,1.471-0.572,2.935-0.716,4.421c-0.217,1.475-0.286,2.964-0.37,4.45l-1.838-0.556c0.787-1.214,1.567-2.396,2.424-3.542
				c0.851-1.146,1.725-2.278,2.672-3.353c0.926-1.09,1.927-2.124,2.989-3.094c1.074-0.948,2.202-1.881,3.507-2.488
				c-1.061,0.954-1.951,2.035-2.813,3.137c-0.869,1.094-1.676,2.237-2.48,3.382c-0.788,1.156-1.588,2.303-2.348,3.48
				c-0.755,1.175-1.548,2.342-2.262,3.523l-2.005,3.322l0.167-3.878c0.067-1.559,0.213-3.116,0.46-4.656
				c0.259-1.538,0.614-3.059,1.073-4.545c0.448-1.49,1.03-2.935,1.689-4.337C189.517,152.569,190.264,151.204,191.228,149.995z"/>
		</g>
	</g>
</g>
</svg>
